<svg version="1.1" id="Layer_1" xmlns="http://www.w3.org/2000/svg" xmlns:xlink="http://www.w3.org/1999/xlink" x="0px" y="0px"
	 width="100%" viewBox="0 0 1024 1024" enable-background="new 0 0 1024 1024" xml:space="preserve">
<path fill="#000000" opacity="1.000000" stroke="none" 
	d="
M844.429688,150.337189 
	C847.627136,149.361069 850.175659,147.556015 853.226990,147.526871 
	C854.775024,148.692841 854.333008,150.307907 854.352051,151.716110 
	C854.737976,180.201050 853.300842,208.584488 850.575073,236.954285 
	C846.593140,278.399994 839.864319,319.341187 829.241577,359.586578 
	C815.730103,410.776276 796.779968,459.670258 766.036499,503.281403 
	C741.435791,538.178955 711.013733,566.513245 672.028381,584.886475 
	C648.176819,596.127258 623.046753,602.639221 596.841736,605.437073 
	C570.959167,608.200500 545.340698,607.447754 520.097473,600.738586 
	C483.112457,590.908813 452.390045,570.832703 426.861359,542.660767 
	C396.624786,509.293488 376.086609,470.771332 366.276062,426.684265 
	C364.970703,420.818146 364.362671,414.857544 363.991882,408.893555 
	C363.297882,397.731262 367.599670,388.536987 375.405762,380.681915 
	C390.925323,365.064911 409.057770,352.950287 427.735291,341.624329 
	C483.234070,307.970184 541.848083,280.394684 600.724915,253.342834 
	C652.627380,229.495483 705.134399,207.041809 757.940979,185.289551 
	C786.572144,173.495712 815.359619,162.081406 844.429688,150.337189 
z"/>
<path fill="#000000" opacity="1.000000" stroke="none" 
	d="
M360.406616,498.632141 
	C376.055237,529.410828 395.822479,556.670715 421.327972,579.514404 
	C454.947235,609.625000 493.707458,629.294006 538.823914,634.689270 
	C596.199585,641.550476 650.525024,631.496948 701.134766,603.122925 
	C704.546387,601.210327 706.626770,601.269287 709.104553,604.403259 
	C732.900208,634.500854 762.286865,659.013550 790.098816,685.084412 
	C823.649475,716.534546 857.422546,747.747437 891.109619,779.052002 
	C905.268005,792.208923 919.451599,805.338745 933.626953,818.477356 
	C934.835266,819.597412 936.315674,820.492798 936.895386,823.238098 
	C930.856934,826.055481 924.643738,829.054199 918.335083,831.836365 
	C916.454590,832.665710 914.841187,831.084595 913.259155,830.270264 
	C865.415100,805.645874 817.584717,780.994690 769.755920,756.340576 
	C740.436829,741.227722 711.111938,726.126038 681.825928,710.949280 
	C678.840515,709.402161 676.011841,708.975403 672.727295,709.867065 
	C651.535156,715.619873 630.059021,720.167908 608.299744,722.994385 
	C579.386475,726.750183 550.334351,729.072449 521.167603,726.367004 
	C512.743347,725.585571 506.248871,727.158691 499.885254,733.611267 
	C485.272644,748.428162 469.728180,762.331421 454.446320,776.480652 
	C446.496826,783.840881 441.296295,793.227844 435.319366,802.000549 
	C420.210602,824.176514 404.500336,845.899658 388.123260,867.151184 
	C386.584106,869.148438 384.938416,870.207336 382.427490,870.603271 
	C375.432953,871.706238 368.547455,873.528442 359.719330,874.207397 
	C368.644531,862.046570 376.724091,851.038025 385.484650,839.101501 
	C372.223389,841.827026 360.060120,844.324097 347.898102,846.827332 
	C333.733246,849.742676 319.541107,852.535889 305.426727,855.678101 
	C302.190216,856.398621 300.462433,855.592773 298.901581,852.931030 
	C296.991028,849.672913 294.280487,846.885254 292.678253,842.370789 
	C316.735870,835.316772 340.545471,828.335449 364.355072,821.354126 
	C364.344177,821.034241 364.333282,820.714355 364.322388,820.394470 
	C347.084473,818.918213 329.846558,817.441895 312.240570,815.934082 
	C312.995331,810.090698 314.874603,805.310974 316.457458,800.463501 
	C317.042908,798.670715 318.697174,798.678406 320.211731,798.692017 
	C341.873810,798.885742 363.556061,798.590698 385.191071,799.463623 
	C401.491455,800.121338 400.679565,800.136841 411.043884,787.669861 
	C419.806458,777.129578 420.886200,767.953308 414.977570,755.473572 
	C406.305756,737.157593 399.763123,717.830750 392.404022,698.899292 
	C391.368530,696.235535 389.747772,694.533142 387.188568,693.264282 
	C331.071136,665.440369 290.184418,622.099426 259.705902,568.122070 
	C233.843765,522.320129 217.874985,472.882294 205.684433,422.035400 
	C201.654633,405.227051 197.561905,388.433716 193.565552,371.617462 
	C191.143204,361.424408 184.990814,354.169312 176.203339,348.828918 
	C159.237564,338.518463 140.356430,333.948883 121.147293,330.372284 
	C116.111244,329.434570 111.025314,328.764771 105.956856,327.971069 
	C105.699951,325.135010 107.932007,324.369385 109.315819,323.177155 
	C124.084236,310.453247 138.873856,297.752777 153.780991,285.192261 
	C156.516861,282.887085 157.904526,280.206573 158.625671,276.818878 
	C163.976990,251.680023 174.505157,229.151215 192.973404,210.901367 
	C208.666779,195.393616 227.808929,186.774231 249.564621,183.619049 
	C292.353790,177.413467 326.116760,194.567795 355.269653,224.052643 
	C378.336823,247.382431 395.834198,274.691040 412.096436,302.896759 
	C417.637665,312.507538 417.542175,312.602875 408.170013,318.556854 
	C390.015442,330.090149 372.044647,341.863525 356.605957,357.034882 
	C345.169159,368.273682 336.343109,381.028320 334.657806,397.451569 
	C333.271179,410.964142 334.869751,424.335785 337.869965,437.558411 
	C342.685791,458.782806 350.458252,478.908051 360.406616,498.632141 
M221.344116,274.231323 
	C222.912338,285.494049 230.858078,292.290863 241.793976,291.724335 
	C251.392502,291.227051 259.257690,283.183319 259.634949,273.478210 
	C260.034088,263.210541 251.102921,253.760788 240.692474,253.435791 
	C230.130142,253.106064 221.732071,261.764587 221.344116,274.231323 
z"/>
</svg>